<svg width="15" height="12" viewBox="0 0 15 12" fill="none" xmlns="http://www.w3.org/2000/svg">
<path d="M1.11342 6.47562C1.02262 6.33186 0.977228 6.25998 0.951816 6.14911C0.932728 6.06583 0.932728 5.9345 0.951816 5.85122C0.977228 5.74035 1.02262 5.66847 1.11341 5.52471C1.86369 4.33672 4.09693 1.3335 7.50027 1.3335C10.9036 1.3335 13.1369 4.33672 13.8871 5.52471C13.9779 5.66847 14.0233 5.74035 14.0487 5.85122C14.0678 5.9345 14.0678 6.06583 14.0487 6.14911C14.0233 6.25998 13.9779 6.33186 13.8871 6.47562C13.1369 7.6636 10.9036 10.6668 7.50027 10.6668C4.09693 10.6668 1.86369 7.6636 1.11342 6.47562Z" stroke="#9FA2B4" stroke-width="1.33333" stroke-linecap="round" stroke-linejoin="round"/>
<path d="M7.50027 8.00016C8.60484 8.00016 9.50027 7.10473 9.50027 6.00016C9.50027 4.89559 8.60484 4.00016 7.50027 4.00016C6.3957 4.00016 5.50027 4.89559 5.50027 6.00016C5.50027 7.10473 6.3957 8.00016 7.50027 8.00016Z" stroke="#9FA2B4" stroke-width="1.33333" stroke-linecap="round" stroke-linejoin="round"/>
</svg>
