<svg width="18" height="15" viewBox="0 0 18 15" fill="none" xmlns="http://www.w3.org/2000/svg">
<path d="M8.99996 11.25C7.0247 11.25 5.42575 9.72108 5.27861 7.78358L2.54684 5.67238C2.18772 6.1229 1.85726 6.59921 1.59059 7.12004C1.53102 7.23788 1.49998 7.36807 1.49998 7.50012C1.49998 7.63216 1.53102 7.76235 1.59059 7.8802C3.00283 10.6357 5.79866 12.5 8.99996 12.5C9.70074 12.5 10.3768 12.3958 11.0283 12.2276L9.67705 11.182C9.45388 11.2251 9.22725 11.2479 8.99996 11.25ZM17.1724 12.763L14.2935 10.538C15.168 9.801 15.8872 8.89746 16.4093 7.87994C16.4689 7.76209 16.5 7.6319 16.5 7.49986C16.5 7.36781 16.4689 7.23762 16.4093 7.11978C14.9971 4.36431 12.2013 2.49999 8.99996 2.49999C7.65921 2.50161 6.34023 2.83915 5.16351 3.48176L1.85048 0.921081C1.80728 0.887463 1.75788 0.862688 1.7051 0.848171C1.65232 0.833654 1.59719 0.829679 1.54287 0.836475C1.48856 0.843271 1.43611 0.860703 1.38853 0.887777C1.34095 0.91485 1.29918 0.951033 1.26559 0.994258L0.754391 1.65233C0.686578 1.73957 0.656192 1.85016 0.669915 1.9598C0.683638 2.06944 0.740346 2.16914 0.827568 2.23697L16.1494 14.0789C16.1926 14.1125 16.242 14.1373 16.2948 14.1518C16.3476 14.1663 16.4027 14.1703 16.4571 14.1635C16.5114 14.1567 16.5638 14.1393 16.6114 14.1122C16.659 14.0851 16.7008 14.0489 16.7343 14.0057L17.2458 13.3476C17.3136 13.2604 17.3439 13.1498 17.3302 13.0401C17.3164 12.9305 17.2596 12.8308 17.1724 12.763ZM12.388 9.06509L11.3645 8.27395C11.4507 8.02485 11.4965 7.76355 11.5 7.49999C11.505 7.11412 11.4196 6.73243 11.2504 6.3856C11.0812 6.03876 10.833 5.73643 10.5258 5.50291C10.2186 5.26938 9.86085 5.11116 9.48139 5.04096C9.10192 4.97076 8.71129 4.99053 8.34085 5.09868C8.49788 5.31147 8.58283 5.56886 8.5833 5.83332C8.57941 5.92132 8.56596 6.00864 8.54319 6.09374L6.62627 4.61223C7.29215 4.05577 8.13218 3.75063 8.99996 3.74999C9.4925 3.74971 9.98026 3.84652 10.4354 4.03488C10.8904 4.22324 11.304 4.49945 11.6522 4.84773C12.0005 5.196 12.2767 5.60951 12.4651 6.0646C12.6534 6.5197 12.7502 7.00745 12.75 7.49999C12.75 8.06327 12.6122 8.58827 12.388 9.06535V9.06509Z" fill="#9FA2B4"/>
</svg>
